<svg xmlns="http://www.w3.org/2000/svg" width="24" height="18" viewBox="0 0 24 18"><path fill="#ECEDED" d="M1.485 9.831l2.903-3.59 2.903 3.59a.668.668 0 0 0 .963 0 .71.71 0 0 0 0-.986L4.904 4.7a.663.663 0 0 0-.516-.197.663.663 0 0 0-.515.197L.523 8.845a.71.71 0 0 0 0 .986.668.668 0 0 0 .962 0zM16.814.116a.7.7 0 0 0-.945.249L7.222 17.027c-.19.324-.112.82.253.926.447.13.754.076.945-.249l8.647-16.661a.67.67 0 0 0-.253-.927zM19.097 4.7l-3.35 4.144a.71.71 0 0 0 0 .986.668.668 0 0 0 .962 0l2.903-3.59 2.903 3.59a.668.668 0 0 0 .962 0 .71.71 0 0 0 0-.986L20.127 4.7a.663.663 0 0 0-.515-.197.663.663 0 0 0-.515.197z"/></svg>